<?xml version="1.0" encoding="UTF-8"?>
<svg version="1.1" xmlns="http://www.w3.org/2000/svg" width="1212" height="568">
<path d="M0 0 C0.88526367 0.04108887 1.77052734 0.08217773 2.68261719 0.12451172 C64.59617183 3.3489614 116.75154417 29.26258681 159 74 C194.30045432 113.96389226 212.43103112 164.92991021 212.31567383 218.02416992 C212.3125297 221.03406603 212.33601112 224.04295991 212.36132812 227.05273438 C212.5310869 278.92064966 195.20737597 328.78308796 161 368 C160.4946875 368.57975586 159.989375 369.15951172 159.46875 369.75683594 C142.82297137 388.66756752 123.75582919 403.37849019 102 416 C101.39430176 416.3604541 100.78860352 416.7209082 100.16455078 417.09228516 C67.54317403 436.42107484 26.59193428 445.25643881 -11.09277344 445.11352539 C-12.64621964 445.11374443 -12.64621964 445.11374443 -14.23104858 445.1139679 C-17.60717974 445.11327891 -20.98325365 445.10553468 -24.359375 445.09765625 C-26.71877004 445.09578846 -29.07816547 445.09436626 -31.43756104 445.09336853 C-37.61223442 445.08957178 -43.78688385 445.0797661 -49.96154785 445.06866455 C-57.38901271 445.05657862 -64.81648562 445.05203465 -72.24395752 445.04621124 C-83.49598828 445.03655256 -94.7479666 445.01737617 -106 445 C-106 414.97 -106 384.94 -106 354 C-67.9375 353.625 -67.9375 353.625 -56.07397461 353.52197266 C-24.01054508 353.50313504 -24.01054508 353.50313504 7.625 348.875 C8.55973145 348.66327148 9.49446289 348.45154297 10.45751953 348.23339844 C32.60315051 342.93454479 53.07487283 332.97792494 71 319 C71.55671387 318.56961426 72.11342773 318.13922852 72.68701172 317.69580078 C96.62218051 298.97931768 108.78539039 274.23078709 113.55859375 244.5234375 C114.31934221 238.10944868 114.24432264 231.63784907 114.25 225.1875 C114.25067474 224.49880829 114.25134949 223.81011658 114.25204468 223.10055542 C114.19598559 187.00112109 102.08575727 156.75788536 78 130 C77.03707031 128.91138672 77.03707031 128.91138672 76.0546875 127.80078125 C56.05949666 106.46392176 26.59170145 94.71472549 -2.2578125 93.68359375 C-40.44397731 92.85774403 -71.0242609 103.59645119 -99 130 C-99.74894531 130.68449219 -100.49789062 131.36898437 -101.26953125 132.07421875 C-124.36289372 153.9542697 -135.14822448 184.95690843 -136.09772027 216.21725416 C-136.14110039 219.70092711 -136.15542047 223.18347711 -136.15821838 226.66741943 C-136.16279618 228.00596328 -136.16779794 229.34450573 -136.17318195 230.68304658 C-136.18663396 234.32723811 -136.19414339 237.97142044 -136.20060861 241.61563015 C-136.20867012 245.55820721 -136.22234776 249.50076545 -136.23532104 253.44332886 C-136.25700285 260.26282913 -136.27517734 267.08233138 -136.29092598 273.90184784 C-136.31370062 283.76155572 -136.34183262 293.62124269 -136.37124526 303.48093274 C-136.41882846 319.48011777 -136.46211756 335.47931139 -136.50268555 351.47851562 C-136.54208779 367.01432971 -136.58352524 382.55013618 -136.62768555 398.0859375 C-136.63040982 399.04459739 -136.63313409 400.00325729 -136.63594092 400.99096748 C-136.64962117 405.80059091 -136.66334129 410.61021422 -136.67708123 415.41983747 C-136.79090023 455.27987667 -136.89694675 495.13993123 -137 535 C-168.35 535 -199.7 535 -232 535 C-232.06623797 491.93309038 -232.12159127 448.86622913 -232.15319599 405.79928308 C-232.15694774 400.70538134 -232.16083074 395.61147971 -232.16479492 390.51757812 C-232.16558185 389.50354932 -232.16636878 388.48952051 -232.16717956 387.44476356 C-232.18020437 371.06373127 -232.20384195 354.68273083 -232.23145839 338.30171739 C-232.25959424 321.47120844 -232.27619349 304.64071609 -232.28226548 287.8101846 C-232.28636502 277.43962278 -232.29927423 267.06915101 -232.3237494 256.69861694 C-232.33970778 249.57011197 -232.34437772 242.441653 -232.34050413 235.3131315 C-232.33859816 231.21120469 -232.34134822 227.10943433 -232.35761642 223.00753593 C-232.43740888 201.83914352 -231.98553308 180.92958264 -226.3125 160.375 C-226.05686279 159.43027832 -225.80122559 158.48555664 -225.5378418 157.51220703 C-217.13818154 127.58387955 -201.62432545 101.08832532 -181 78 C-180.52062988 77.45891602 -180.04125977 76.91783203 -179.54736328 76.36035156 C-147.35316325 40.16443263 -105.23973798 15.55926065 -58 5 C-57.25621094 4.83274414 -56.51242187 4.66548828 -55.74609375 4.49316406 C-37.7068688 0.57342593 -18.42424376 -0.86451602 0 0 Z " fill="#FAB900" transform="translate(512,33)"/>
<path d="M0 0 C0.97485352 0.00100708 1.94970703 0.00201416 2.95410156 0.00305176 C6.56316317 0.00824687 10.17220788 0.02220788 13.78125 0.03515625 C25.90875 0.06609375 25.90875 0.06609375 38.28125 0.09765625 C38.28125 31.11765625 38.28125 62.13765625 38.28125 94.09765625 C22.44125 95.08765625 22.44125 95.08765625 6.28125 96.09765625 C-22.08794813 100.19374368 -48.71995653 109.15089319 -70.71875 128.09765625 C-71.6571875 128.87496094 -72.595625 129.65226563 -73.5625 130.453125 C-94.13394081 148.16421098 -107.96098693 174.00668963 -110.71875 201.09765625 C-110.82703125 201.979375 -110.9353125 202.86109375 -111.046875 203.76953125 C-114.58105303 235.94915226 -106.960821 269.77362469 -86.63085938 295.39233398 C-85.34148073 296.97367034 -84.03449825 298.53821452 -82.71875 300.09765625 C-81.87570313 301.10570312 -81.03265625 302.11375 -80.1640625 303.15234375 C-57.29364218 329.28027201 -27.3491433 341.4925907 6.28125 347.09765625 C16.84125 347.75765625 27.40125 348.41765625 38.28125 349.09765625 C38.28125 379.12765625 38.28125 409.15765625 38.28125 440.09765625 C-6.46353649 440.09765625 -6.46353649 440.09765625 -23.71875 437.09765625 C-24.6571875 436.93668457 -25.595625 436.77571289 -26.5625 436.60986328 C-68.50133107 429.11358527 -107.28571572 410.46659098 -138.38671875 381.27734375 C-140.40575592 379.39020348 -142.47068267 377.61468123 -144.59375 375.84765625 C-183.29283089 341.96621605 -205.34215347 290.58905837 -209.54003906 240.02075195 C-212.90895815 184.91683358 -197.9339205 130.41033771 -162.07373047 87.71289062 C-160.71102545 86.08844803 -159.37271218 84.44596052 -158.03515625 82.80078125 C-146.41455304 68.69997193 -133.36841511 55.06373505 -118.71875 44.09765625 C-117.60910451 43.23602531 -116.49974853 42.37402147 -115.390625 41.51171875 C-82.65792996 16.43024684 -41.55534489 -0.20468231 0 0 Z " fill="#FAB900" transform="translate(209.71875,37.90234375)"/>
<path d="M0 0 C3.59025421 2.88430535 6.6960039 5.57306171 9.5 9.25 C13.13666711 13.91682566 16.85667494 18.50201433 20.625 23.0625 C21.83984815 24.53515262 23.05469183 26.00780893 24.26953125 27.48046875 C24.88393066 28.22474121 25.49833008 28.96901367 26.13134766 29.73583984 C29.19415224 33.44689938 32.25347431 37.16082535 35.3125 40.875 C35.90240723 41.59115479 36.49231445 42.30730957 37.10009766 43.04516602 C40.94753796 47.71752268 44.78325768 52.39929128 48.61328125 57.0859375 C53.4522859 62.99411667 58.31283528 68.88460244 63.16943359 74.77832031 C66.69314746 79.05490022 70.21533967 83.33273337 73.73779297 87.61035156 C76.71659562 91.22764791 79.69581299 94.84460131 82.67578125 98.4609375 C88.3328738 105.32681051 93.98381206 112.19738185 99.61328125 119.0859375 C104.4522859 124.99411667 109.31283528 130.88460244 114.16943359 136.77832031 C117.69314746 141.05490022 121.21533967 145.33273337 124.73779297 149.61035156 C127.71659562 153.22764791 130.69581299 156.84460131 133.67578125 160.4609375 C134.88804146 161.93227467 136.10028131 163.40362862 137.3125 164.875 C138.18938477 165.93920166 138.18938477 165.93920166 139.08398438 167.02490234 C143.05012007 171.84044082 147.00170864 176.66742393 150.9375 181.5078125 C152.77787431 183.90820542 152.77787431 183.90820542 154.48219299 185.17202759 C158.23222296 188.50262903 159.37010495 191.54338737 159.73847866 196.5444088 C159.89267173 200.41126333 159.91347416 204.27112831 159.90234375 208.140625 C159.91402184 209.83063698 159.92702937 211.52064024 159.94129944 213.21063232 C159.963635 216.74797119 159.96285413 220.28441174 159.94702148 223.82177734 C159.9296736 228.32948708 159.98034491 232.83348361 160.0500555 237.34057999 C160.09451972 240.83090284 160.09684935 244.32034949 160.08752632 247.81090546 C160.08905462 249.47095829 160.10455407 251.13106514 160.13496208 252.79084015 C160.29395512 262.68534277 159.49445284 269.32656768 152.26727295 276.80532837 C151.51907288 277.52957001 150.7708728 278.25381165 150 279 C148.83182129 280.3830716 147.6780532 281.77870158 146.55078125 283.1953125 C145.47153507 284.50535738 144.39210542 285.81525115 143.3125 287.125 C142.10025554 288.59635015 140.8880161 290.06770443 139.67578125 291.5390625 C138.7623999 292.64749512 138.7623999 292.64749512 137.83056641 293.77832031 C134.88632412 297.3516205 131.9432036 300.92584428 129 304.5 C127.83333904 305.91667137 126.66667237 307.33333803 125.5 308.75 C124.9225 309.45125 124.345 310.1525 123.75 310.875 C122 313 120.25 315.125 118.5 317.25 C117.9222583 317.95157227 117.3445166 318.65314453 116.74926758 319.37597656 C115.58515646 320.78948203 114.4209316 322.20289384 113.2565918 323.61621094 C110.29987496 327.20547571 107.34528796 330.79645822 104.39453125 334.390625 C99.012729 340.9421619 93.61891182 347.47950768 88.125 353.9375 C84.4258395 358.28635274 80.81754906 362.69500943 77.26953125 367.16796875 C72.52718884 373.08569379 67.67438043 378.91408867 62.84667969 384.76220703 C60.47441948 387.63689463 58.10505863 390.51396207 55.73608398 393.39135742 C54.57694719 394.79924161 53.4176041 396.20695598 52.25805664 397.61450195 C49.30080525 401.20429837 46.34576399 404.7958784 43.39453125 408.390625 C38.012726 414.94216555 32.61874667 421.47936402 27.125 427.9375 C22.64265058 433.20962721 18.297405 438.576537 14 444 C11.83563971 446.71017987 9.66771143 449.41750022 7.5 452.125 C6.44785938 453.44005833 5.39577134 454.75515874 4.34375 456.0703125 C3.5703125 457.03710938 2.796875 458.00390625 2 459 C-2.72131289 457.57583798 -5.51005759 454.80685189 -8.8125 451.3125 C-9.87303701 450.21944614 -10.9355362 449.12829264 -12 448.0390625 C-12.51304687 447.51344727 -13.02609375 446.98783203 -13.5546875 446.44628906 C-15.98554174 444.01379236 -18.59071598 441.80213258 -21.20703125 439.57421875 C-23.63337731 437.44389748 -25.86669765 435.14546662 -28.12695312 432.84179688 C-29.93081587 431.06802986 -31.78874582 429.41028759 -33.70703125 427.76171875 C-37.97248367 424.05284271 -42.08776334 420.20274017 -46.1875 416.3125 C-53.40847293 409.48661734 -60.68110005 402.72065943 -68 396 C-67.4025592 392.83260857 -66.42925444 390.96470065 -64.375 388.49609375 C-63.8377832 387.84342529 -63.30056641 387.19075684 -62.74707031 386.51831055 C-62.17053711 385.83164307 -61.59400391 385.14497559 -61 384.4375 C-60.41057617 383.72440674 -59.82115234 383.01131348 -59.21386719 382.27661133 C-58.02740567 380.84170412 -56.83831096 379.40896976 -55.64648438 377.97851562 C-53.49690924 375.39545559 -51.37306195 372.79239161 -49.25 370.1875 C-47.83348242 368.4582112 -46.41681798 366.72904269 -45 365 C-43.49985719 363.16678352 -41.99985918 361.33344854 -40.5 359.5 C-10.5 322.83333333 19.5 286.16666667 49.5 249.5 C50.23347656 248.60023438 50.96695313 247.70046875 51.72265625 246.7734375 C53.30093856 244.85134412 54.89309187 242.94058899 56.49609375 241.0390625 C57.30175781 240.07742187 58.10742188 239.11578125 58.9375 238.125 C60.03384766 236.82949219 60.03384766 236.82949219 61.15234375 235.5078125 C62.95726633 233.05800215 64.0188258 230.86646703 65 228 C64.29875 227.17757812 63.5975 226.35515625 62.875 225.5078125 C57.81390046 219.55810929 52.8117816 213.57737843 47.95703125 207.45703125 C44.35295939 202.9321586 40.66961105 198.47174634 37 194 C31.25076487 186.98614568 25.52333802 179.95492408 19.80664062 172.91455078 C15.21819393 167.26505941 10.61344805 161.62909519 6 156 C0.25128865 148.98571413 -5.47666001 141.9549265 -11.19335938 134.91455078 C-15.78180607 129.26505941 -20.38655195 123.62909519 -25 118 C-30.75102911 110.98288613 -36.48204957 103.94987488 -42.19995117 96.90576172 C-45.31073797 93.07465395 -48.43064639 89.25142699 -51.5625 85.4375 C-57.10444261 78.67550286 -62.54859768 71.83500697 -68 65 C-63.84029396 59.98407183 -59.48115677 55.46941753 -54.6875 51.0625 C-53.26408774 49.74113871 -51.84091872 48.41951535 -50.41796875 47.09765625 C-49.68884277 46.42234863 -48.9597168 45.74704102 -48.20849609 45.05126953 C-44.62138899 41.71953463 -41.06161382 38.35893703 -37.5 35 C-25.0510014 23.27767981 -12.58711858 11.57411417 0 0 Z " fill="#000000" transform="translate(794,0)"/>
<path d="M0 0 C4.69341077 0.85713446 7.07500273 3.78415841 10.25 7.125 C11.41474298 8.32218707 12.58139985 9.51751521 13.75 10.7109375 C14.31074219 11.28424805 14.87148437 11.85755859 15.44921875 12.44824219 C17.88431662 14.8848735 20.48505407 17.10076018 23.109375 19.328125 C26.14239108 22.0102136 28.93508434 24.92733249 31.77734375 27.80859375 C34.4270144 30.42101068 37.21172803 32.83302621 40.03515625 35.25390625 C42.81699148 37.72603418 45.39375951 40.38430547 48.00390625 43.03515625 C49.92107177 44.92230744 51.89575322 46.68685375 53.9375 48.4375 C57.73922756 51.7035634 61.2350738 55.21530933 64.75 58.78515625 C67.53998745 61.53155015 70.47107716 64.07393976 73.46875 66.58984375 C75 68 75 68 76 70 C71.22623498 75.99647322 66.41114813 81.95635478 61.55078125 87.8828125 C58.52224429 91.57910611 55.51173042 95.29001074 52.5 99 C46.65381798 106.2000347 40.78525295 113.38142644 34.90625 120.5546875 C30.42499692 126.02636245 25.95819126 131.50953435 21.5 137 C15.65372231 144.19995732 9.78525333 151.38142597 3.90625 158.5546875 C-0.57500308 164.02636245 -5.04180874 169.50953435 -9.5 175 C-15.34627769 182.19995732 -21.21474667 189.38142597 -27.09375 196.5546875 C-32.13780445 202.71355109 -37.16508535 208.88582259 -42.17797852 215.07006836 C-44.69115368 218.16860004 -47.20963818 221.26151959 -49.76171875 224.328125 C-50.56222656 225.29234375 -51.36273437 226.2565625 -52.1875 227.25 C-52.88230469 228.08015625 -53.57710937 228.9103125 -54.29296875 229.765625 C-55.83749163 231.78728882 -56.96457605 233.68489825 -58 236 C-51.94496908 243.84293376 -45.76479705 251.52974605 -39.27905273 259.02124023 C-35.72636402 263.13100907 -32.29206136 267.31664968 -28.921875 271.578125 C-25.33623264 276.09661741 -21.65876306 280.54068708 -18 285 C-16.49971683 286.83310162 -14.99971592 288.66643427 -13.5 290.5 C-12.7575 291.4075 -12.015 292.315 -11.25 293.25 C13.5 323.5 13.5 323.5 15.765625 326.26953125 C17.21297051 328.03822795 18.66085301 329.80648543 20.109375 331.57421875 C25.15325065 337.73179688 30.17596456 343.90629891 35.19335938 350.08544922 C39.7818077 355.7349426 44.38705127 361.37049405 49 367 C50.50014281 368.83321648 52.00014082 370.66655146 53.5 372.5 C54.2425 373.4075 54.985 374.315 55.75 375.25 C62.5 383.5 69.25 391.75 76 400 C74.66420352 402.97636205 73.20765397 405.03951858 70.875 407.3125 C70.33617187 407.84488281 69.79734375 408.37726563 69.2421875 408.92578125 C67.27803066 410.74279742 65.28153167 412.50341975 63.26171875 414.2578125 C59.0540888 417.92419794 54.98665793 421.72274845 50.9375 425.5625 C49.44164222 426.97551027 47.94554383 428.38826585 46.44921875 429.80078125 C45.70462402 430.50412598 44.9600293 431.2074707 44.19287109 431.93212891 C30.24743018 445.08263932 16.13901405 458.05834389 2 471 C-1.61174918 468.27855962 -4.43800395 465.47332467 -7.25 461.9375 C-8.03117187 460.96425781 -8.81234375 459.99101562 -9.6171875 458.98828125 C-10.40351562 458.00214844 -11.18984375 457.01601563 -12 456 C-16.79158186 450.09151916 -21.63464306 444.23249056 -26.5625 438.4375 C-30.36559284 433.96273766 -34.08066502 429.4333113 -37.73046875 424.83203125 C-42.46825183 418.91999556 -47.31685364 413.09767545 -52.14013672 407.25537109 C-53.97257873 405.03325252 -55.80138335 402.80819649 -57.62890625 400.58203125 C-63.0023298 394.0391324 -68.3888608 387.51135574 -73.875 381.0625 C-77.5741605 376.71364726 -81.18245094 372.30499057 -84.73046875 367.83203125 C-89.47281116 361.91430621 -94.32561957 356.08591133 -99.15332031 350.23779297 C-101.52558052 347.36310537 -103.89494137 344.48603793 -106.26391602 341.60864258 C-107.42305281 340.20075839 -108.5823959 338.79304402 -109.74194336 337.38549805 C-112.69919475 333.79570163 -115.65423601 330.2041216 -118.60546875 326.609375 C-123.9872725 320.05783627 -129.38117074 313.52056414 -134.875 307.0625 C-138.56441867 302.7240596 -142.24262042 298.38675967 -145.63818359 293.81201172 C-147.48413176 291.61419996 -149.00189523 290.1408929 -151.19384766 288.38867188 C-159.06663246 281.46094865 -161.69346736 274.33058116 -162.39789009 264.12775707 C-162.78890125 256.34006905 -162.73204095 248.54820641 -162.58496094 240.75463867 C-162.49947491 236.21367779 -162.52170085 231.68085275 -162.57700348 227.13967609 C-162.60921331 223.60338246 -162.58749908 220.06894549 -162.54985046 216.53276634 C-162.53762621 214.86052671 -162.54067773 213.18809271 -162.56037903 211.51592445 C-162.64251908 201.2821538 -161.44102179 194.77403064 -154.24158478 187.19997883 C-152.83552361 185.79215184 -151.41787696 184.39592613 -150 183 C-148.4352763 181.14419806 -146.88942098 179.27207412 -145.375 177.375 C-144.64410156 176.4778125 -143.91320312 175.580625 -143.16015625 174.65625 C-142.44730469 173.7796875 -141.73445312 172.903125 -141 172 C-132.74756869 161.89116164 -124.44636694 151.822634 -116.14746094 141.75195312 C-107.81001605 131.63724034 -107.81001605 131.63724034 -99.5 121.5 C-93.96297024 114.72455878 -88.39510975 107.97452324 -82.83056641 101.22167969 C-79.88632412 97.64837951 -76.94318902 94.07416772 -74 90.5 C-70.44199194 86.1792046 -66.88368948 81.85865307 -63.32421875 77.5390625 C-55.90002692 68.52945437 -55.90002692 68.52945437 -48.5 59.5 C-42.96297024 52.72455878 -37.39510975 45.97452324 -31.83056641 39.22167969 C-30.046884 37.0569011 -28.26358341 34.89180875 -26.48046875 32.7265625 C-25.61699829 31.67807129 -25.61699829 31.67807129 -24.73608398 30.60839844 C-23.58309183 29.20813965 -22.43025856 27.80775001 -21.27758789 26.40722656 C-18.21541102 22.68717194 -15.149417 18.97034661 -12.078125 15.2578125 C-11.43746094 14.48244141 -10.79679687 13.70707031 -10.13671875 12.90820312 C-8.90609657 11.41897194 -7.67437686 9.93064682 -6.44140625 8.44335938 C-5.88839844 7.77369141 -5.33539062 7.10402344 -4.765625 6.4140625 C-4.03520996 5.53161865 -4.03520996 5.53161865 -3.29003906 4.63134766 C-2.11544369 3.14598689 -1.0504169 1.57562535 0 0 Z M1 14 C0.45472656 14.66644531 -0.09054687 15.33289063 -0.65234375 16.01953125 C-2.25253326 17.97531843 -3.85280017 19.93104229 -5.453125 21.88671875 C-7.00595111 23.78455246 -8.55798871 25.68301951 -10.109375 27.58203125 C-17.66364703 36.82607466 -25.26043949 46.03507207 -32.85253906 55.24804688 C-41.18998395 65.36275966 -41.18998395 65.36275966 -49.5 75.5 C-55.03702976 82.27544122 -60.60489025 89.02547676 -66.16943359 95.77832031 C-69.11367588 99.35162049 -72.05681098 102.92583228 -75 106.5 C-78.55800806 110.8207954 -82.11631052 115.14134693 -85.67578125 119.4609375 C-93.09997308 128.47054563 -93.09997308 128.47054563 -100.5 137.5 C-106.03702976 144.27544122 -111.60489025 151.02547676 -117.16943359 157.77832031 C-120.68950988 162.05048545 -124.20814765 166.32383548 -127.72680664 170.59716797 C-130.76732219 174.28962005 -133.80875896 177.98130805 -136.8515625 181.671875 C-137.48320313 182.43822266 -138.11484375 183.20457031 -138.765625 183.99414062 C-139.97106285 185.45662037 -141.17677509 186.91887402 -142.3828125 188.38085938 C-142.929375 189.04408203 -143.4759375 189.70730469 -144.0390625 190.390625 C-144.51553223 190.96844727 -144.99200195 191.54626953 -145.48291016 192.14160156 C-145.9835498 192.75487305 -146.48418945 193.36814453 -147 194 C-148.01748573 195.07649811 -148.01748573 195.07649811 -149.05552673 196.17474365 C-151.48167154 199.69985307 -151.54571872 201.80699693 -151.62866211 206.0625 C-151.64691544 206.75435898 -151.66516876 207.44621796 -151.68397522 208.15904236 C-151.73711957 210.43956031 -151.7596677 212.71894715 -151.77734375 215 C-151.79784169 216.59839044 -151.81847894 218.19677909 -151.83924866 219.79516602 C-151.87671396 223.1475286 -151.8961266 226.49950076 -151.90600586 229.85205078 C-151.92228604 234.11573825 -152.00779529 238.37494511 -152.11069393 242.63729858 C-152.17825932 245.94233693 -152.19535824 249.24633223 -152.19940376 252.55200195 C-152.20956056 254.12124067 -152.23769336 255.69048364 -152.28529167 257.2590332 C-152.53747542 266.24972534 -151.83254897 272.30974978 -145.71313477 279.21484375 C-143.84755516 281.18605006 -141.92739841 283.08765539 -140 285 C-138.43593126 286.85635398 -136.89015052 288.7285085 -135.375 290.625 C-134.64410156 291.5221875 -133.91320312 292.419375 -133.16015625 293.34375 C-132.44730469 294.2203125 -131.73445312 295.096875 -131 296 C-123.96843308 304.61333717 -116.90154915 313.1973394 -109.83056641 321.77832031 C-107.46594139 324.64816395 -105.10203743 327.51860088 -102.73828125 330.38916016 C-101.57826194 331.79780158 -100.4181054 333.20633002 -99.2578125 334.61474609 C-96.30067739 338.2044898 -93.34569128 341.79596696 -90.39453125 345.390625 C-85.012729 351.9421619 -79.61891182 358.47950768 -74.125 364.9375 C-70.4258395 369.28635274 -66.81754906 373.69500943 -63.26953125 378.16796875 C-58.52718884 384.08569379 -53.67438043 389.91408867 -48.84667969 395.76220703 C-46.47441948 398.63689463 -44.10505863 401.51396207 -41.73608398 404.39135742 C-40.57694719 405.79924161 -39.4176041 407.20695598 -38.25805664 408.61450195 C-35.30080525 412.20429837 -32.34576399 415.7958784 -29.39453125 419.390625 C-23.57352167 426.47683093 -17.73029479 433.53890874 -11.77856445 440.51586914 C-8.29163541 444.61610016 -4.9464406 448.81509491 -1.65625 453.07421875 C0.03959745 455.22077679 0.03959745 455.22077679 3 457 C3.4125 456.57589844 3.825 456.15179688 4.25 455.71484375 C4.8275 455.12832031 5.405 454.54179687 6 453.9375 C6.556875 453.36902344 7.11375 452.80054688 7.6875 452.21484375 C9.66472194 450.32111935 11.67940871 448.52052303 13.74609375 446.7265625 C17.9537497 443.06783694 22.01699385 439.27378862 26.0625 435.4375 C27.55835778 434.02448973 29.05445617 432.61173415 30.55078125 431.19921875 C31.29537598 430.49587402 32.0399707 429.7925293 32.80712891 429.06787109 C42.80461394 419.64027164 52.89102732 410.30775562 63 401 C60.38540773 396.20969345 56.99222254 392.22211882 53.5 388.0625 C49.04139267 382.70699346 44.64279792 377.3212944 40.375 371.8125 C36.16477555 366.39225348 31.7671526 361.16322219 27.27563477 355.97460938 C23.72388829 351.86639747 20.29094434 347.68193789 16.921875 343.421875 C13.33623264 338.90338259 9.65876306 334.45931292 6 330 C4.49971683 328.16689838 2.99971592 326.33356573 1.5 324.5 C0.7575 323.5925 0.015 322.685 -0.75 321.75 C-52.5 258.5 -52.5 258.5 -54.73046875 255.7734375 C-56.2950106 253.86151888 -57.86015075 251.95008975 -59.42578125 250.0390625 C-60.21339844 249.07742188 -61.00101563 248.11578125 -61.8125 247.125 C-62.52019531 246.26132812 -63.22789063 245.39765625 -63.95703125 244.5078125 C-64.96830078 243.26644531 -64.96830078 243.26644531 -66 242 C-66.76699219 241.15179688 -67.53398438 240.30359375 -68.32421875 239.4296875 C-70 237 -70 237 -69.7824707 235.08081055 C-68.89134625 232.71105899 -67.78735267 231.21114336 -66.15625 229.27734375 C-65.57415771 228.57988037 -64.99206543 227.88241699 -64.39233398 227.16381836 C-63.45562866 226.06179077 -63.45562866 226.06179077 -62.5 224.9375 C-61.2095263 223.39592467 -59.91916153 221.85425814 -58.62890625 220.3125 C-58.00129395 219.56742188 -57.37368164 218.82234375 -56.72705078 218.0546875 C-54.60808558 215.53373596 -52.51884047 212.98957355 -50.4375 210.4375 C-49.74527344 209.59058594 -49.05304688 208.74367187 -48.33984375 207.87109375 C-44.82317191 203.55597889 -41.31439087 199.23446379 -37.80541992 194.91308594 C-32.52329159 188.40938313 -27.21721307 181.92548013 -21.90625 175.4453125 C-17.42499692 169.97363755 -12.95819126 164.49046565 -8.5 159 C-2.65372231 151.80004268 3.21474667 144.61857403 9.09375 137.4453125 C13.57500308 131.97363755 18.04180874 126.49046565 22.5 121 C28.34627769 113.80004268 34.21474667 106.61857403 40.09375 99.4453125 C41.95080371 97.17782301 43.8053243 94.90828769 45.65917969 92.63818359 C47.21994561 90.73127548 48.78603916 88.82878531 50.3515625 86.92578125 C51.52617291 85.49229503 52.70065249 84.0587016 53.875 82.625 C54.43477539 81.94671143 54.99455078 81.26842285 55.57128906 80.56958008 C58.34483712 77.17589901 60.87298125 73.85243256 63 70 C59.47299715 66.3738002 55.90032831 62.86075245 52.0625 59.5625 C49.25423653 57.14382221 46.60029407 54.64100317 44 52 C41.44009866 49.40017817 38.8322046 46.93731602 36.0625 44.5625 C33.07198284 41.99334729 30.26883316 39.30682744 27.5 36.5 C24.14372059 33.09774416 20.67839403 29.93048753 17.04296875 26.83203125 C13.91635832 24.02824484 11.05342996 20.9744841 8.17578125 17.91796875 C5.87348583 15.88847674 3.89525589 14.95832463 1 14 Z " fill="#000000" transform="translate(1136,43)"/>
</svg>
